<!--?xml version="1.0" standalone="no"?-->
              <svg id="sw-js-blob-svg" viewBox="0 0 100 100" xmlns="http://www.w3.org/2000/svg" version="1.1">
                    <defs> 
                        <linearGradient id="sw-gradient" x1="0" x2="1" y1="1" y2="0">
                            <stop id="stop1" stop-color="rgba(56, 63, 91, 1)" offset="0%"></stop>
                            <stop id="stop2" stop-color="rgba(56, 63, 91, 1)" offset="100%"></stop>
                        </linearGradient>
                    </defs>
                <path fill="url(#sw-gradient)" d="M24.8,-30.6C30,-25.2,30.6,-15.3,32.6,-5.6C34.6,4.2,37.9,14,34.9,21.1C31.9,28.2,22.7,32.6,13.7,34.5C4.7,36.5,-4.1,35.9,-11.2,32.5C-18.2,29.2,-23.5,22.9,-27.5,15.9C-31.4,9,-33.9,1.3,-32.5,-5.6C-31.1,-12.4,-25.8,-18.4,-19.7,-23.7C-13.6,-28.9,-6.8,-33.6,1.5,-35.4C9.8,-37.1,19.6,-36.1,24.8,-30.6Z" width="100%" height="100%" transform="translate(50 50)" style="transition: 0.3s;" stroke-width="0"></path>
              </svg>